<mxfile host="65bd71144e">
    <diagram id="FvibE0tPyZLCJIJes0b2" name="EventPost">
        <mxGraphModel dx="1231" dy="377" grid="0" gridSize="10" guides="1" tooltips="1" connect="1" arrows="1" fold="1" page="0" pageScale="1" pageWidth="850" pageHeight="1100" background="none" math="0" shadow="0">
            <root>
                <mxCell id="0"/>
                <mxCell id="1" parent="0"/>
                <mxCell id="53" value="User" style="shape=table;startSize=30;container=1;collapsible=1;childLayout=tableLayout;fixedRows=1;rowLines=0;fontStyle=1;align=center;resizeLast=1;fontSize=20;" parent="1" vertex="1">
                    <mxGeometry x="-265" y="173" width="405.66669921875007" height="332" as="geometry">
                        <mxRectangle x="100" y="160" width="80" height="40" as="alternateBounds"/>
                    </mxGeometry>
                </mxCell>
                <mxCell id="54" value="" style="shape=tableRow;horizontal=0;startSize=0;swimlaneHead=0;swimlaneBody=0;fillColor=none;collapsible=0;dropTarget=0;points=[[0,0.5],[1,0.5]];portConstraint=eastwest;top=0;left=0;right=0;bottom=1;fontSize=20;" parent="53" vertex="1">
                    <mxGeometry y="30" width="405.66669921875007" height="30" as="geometry"/>
                </mxCell>
                <mxCell id="55" value="PK" style="shape=partialRectangle;connectable=0;fillColor=none;top=0;left=0;bottom=0;right=0;fontStyle=1;overflow=hidden;fontSize=20;" parent="54" vertex="1">
                    <mxGeometry width="55.58386230468747" height="30" as="geometry">
                        <mxRectangle width="55.58386230468747" height="30" as="alternateBounds"/>
                    </mxGeometry>
                </mxCell>
                <mxCell id="56" value="userID" style="shape=partialRectangle;connectable=0;fillColor=none;top=0;left=0;bottom=0;right=0;align=left;spacingLeft=6;fontStyle=5;overflow=hidden;fontSize=20;" parent="54" vertex="1">
                    <mxGeometry x="55.58386230468747" width="217.34576416015625" height="30" as="geometry">
                        <mxRectangle width="217.34576416015625" height="30" as="alternateBounds"/>
                    </mxGeometry>
                </mxCell>
                <mxCell id="171" value="Document" style="shape=partialRectangle;connectable=0;fillColor=none;top=0;left=0;bottom=0;right=0;align=left;spacingLeft=6;fontStyle=0;overflow=hidden;fontSize=20;" parent="54" vertex="1">
                    <mxGeometry x="272.92962646484375" width="132.73707275390632" height="30" as="geometry">
                        <mxRectangle width="132.73707275390632" height="30" as="alternateBounds"/>
                    </mxGeometry>
                </mxCell>
                <mxCell id="57" value="" style="shape=tableRow;horizontal=0;startSize=0;swimlaneHead=0;swimlaneBody=0;fillColor=none;collapsible=0;dropTarget=0;points=[[0,0.5],[1,0.5]];portConstraint=eastwest;top=0;left=0;right=0;bottom=0;fontSize=20;" parent="53" vertex="1">
                    <mxGeometry y="60" width="405.66669921875007" height="30" as="geometry"/>
                </mxCell>
                <mxCell id="58" value="" style="shape=partialRectangle;connectable=0;fillColor=none;top=0;left=0;bottom=0;right=0;editable=1;overflow=hidden;fontSize=20;" parent="57" vertex="1">
                    <mxGeometry width="55.58386230468747" height="30" as="geometry">
                        <mxRectangle width="55.58386230468747" height="30" as="alternateBounds"/>
                    </mxGeometry>
                </mxCell>
                <mxCell id="59" value="username" style="shape=partialRectangle;connectable=0;fillColor=none;top=0;left=0;bottom=0;right=0;align=left;spacingLeft=6;overflow=hidden;fontSize=20;" parent="57" vertex="1">
                    <mxGeometry x="55.58386230468747" width="217.34576416015625" height="30" as="geometry">
                        <mxRectangle width="217.34576416015625" height="30" as="alternateBounds"/>
                    </mxGeometry>
                </mxCell>
                <mxCell id="172" value="string" style="shape=partialRectangle;connectable=0;fillColor=none;top=0;left=0;bottom=0;right=0;align=left;spacingLeft=6;overflow=hidden;fontSize=20;" parent="57" vertex="1">
                    <mxGeometry x="272.92962646484375" width="132.73707275390632" height="30" as="geometry">
                        <mxRectangle width="132.73707275390632" height="30" as="alternateBounds"/>
                    </mxGeometry>
                </mxCell>
                <mxCell id="60" value="" style="shape=tableRow;horizontal=0;startSize=0;swimlaneHead=0;swimlaneBody=0;fillColor=none;collapsible=0;dropTarget=0;points=[[0,0.5],[1,0.5]];portConstraint=eastwest;top=0;left=0;right=0;bottom=0;fontSize=20;" parent="53" vertex="1">
                    <mxGeometry y="90" width="405.66669921875007" height="30" as="geometry"/>
                </mxCell>
                <mxCell id="61" value="" style="shape=partialRectangle;connectable=0;fillColor=none;top=0;left=0;bottom=0;right=0;editable=1;overflow=hidden;fontSize=20;" parent="60" vertex="1">
                    <mxGeometry width="55.58386230468747" height="30" as="geometry">
                        <mxRectangle width="55.58386230468747" height="30" as="alternateBounds"/>
                    </mxGeometry>
                </mxCell>
                <mxCell id="62" value="password" style="shape=partialRectangle;connectable=0;fillColor=none;top=0;left=0;bottom=0;right=0;align=left;spacingLeft=6;overflow=hidden;fontSize=20;" parent="60" vertex="1">
                    <mxGeometry x="55.58386230468747" width="217.34576416015625" height="30" as="geometry">
                        <mxRectangle width="217.34576416015625" height="30" as="alternateBounds"/>
                    </mxGeometry>
                </mxCell>
                <mxCell id="173" value="string" style="shape=partialRectangle;connectable=0;fillColor=none;top=0;left=0;bottom=0;right=0;align=left;spacingLeft=6;overflow=hidden;fontSize=20;" parent="60" vertex="1">
                    <mxGeometry x="272.92962646484375" width="132.73707275390632" height="30" as="geometry">
                        <mxRectangle width="132.73707275390632" height="30" as="alternateBounds"/>
                    </mxGeometry>
                </mxCell>
                <mxCell id="70" value="" style="shape=tableRow;horizontal=0;startSize=0;swimlaneHead=0;swimlaneBody=0;fillColor=none;collapsible=0;dropTarget=0;points=[[0,0.5],[1,0.5]];portConstraint=eastwest;top=0;left=0;right=0;bottom=0;fontSize=20;" parent="53" vertex="1">
                    <mxGeometry y="120" width="405.66669921875007" height="30" as="geometry"/>
                </mxCell>
                <mxCell id="71" value="" style="shape=partialRectangle;connectable=0;fillColor=none;top=0;left=0;bottom=0;right=0;editable=1;overflow=hidden;fontSize=20;" parent="70" vertex="1">
                    <mxGeometry width="55.58386230468747" height="30" as="geometry">
                        <mxRectangle width="55.58386230468747" height="30" as="alternateBounds"/>
                    </mxGeometry>
                </mxCell>
                <mxCell id="72" value="email" style="shape=partialRectangle;connectable=0;fillColor=none;top=0;left=0;bottom=0;right=0;align=left;spacingLeft=6;overflow=hidden;fontSize=20;" parent="70" vertex="1">
                    <mxGeometry x="55.58386230468747" width="217.34576416015625" height="30" as="geometry">
                        <mxRectangle width="217.34576416015625" height="30" as="alternateBounds"/>
                    </mxGeometry>
                </mxCell>
                <mxCell id="174" value="string" style="shape=partialRectangle;connectable=0;fillColor=none;top=0;left=0;bottom=0;right=0;align=left;spacingLeft=6;overflow=hidden;fontSize=20;" parent="70" vertex="1">
                    <mxGeometry x="272.92962646484375" width="132.73707275390632" height="30" as="geometry">
                        <mxRectangle width="132.73707275390632" height="30" as="alternateBounds"/>
                    </mxGeometry>
                </mxCell>
                <mxCell id="66" value="" style="shape=tableRow;horizontal=0;startSize=0;swimlaneHead=0;swimlaneBody=0;fillColor=none;collapsible=0;dropTarget=0;points=[[0,0.5],[1,0.5]];portConstraint=eastwest;top=0;left=0;right=0;bottom=0;fontSize=20;" parent="53" vertex="1">
                    <mxGeometry y="150" width="405.66669921875007" height="30" as="geometry"/>
                </mxCell>
                <mxCell id="67" value="" style="shape=partialRectangle;connectable=0;fillColor=none;top=0;left=0;bottom=0;right=0;editable=1;overflow=hidden;fontSize=20;" parent="66" vertex="1">
                    <mxGeometry width="55.58386230468747" height="30" as="geometry">
                        <mxRectangle width="55.58386230468747" height="30" as="alternateBounds"/>
                    </mxGeometry>
                </mxCell>
                <mxCell id="68" value="roles" style="shape=partialRectangle;connectable=0;fillColor=none;top=0;left=0;bottom=0;right=0;align=left;spacingLeft=6;overflow=hidden;fontSize=20;" parent="66" vertex="1">
                    <mxGeometry x="55.58386230468747" width="217.34576416015625" height="30" as="geometry">
                        <mxRectangle width="217.34576416015625" height="30" as="alternateBounds"/>
                    </mxGeometry>
                </mxCell>
                <mxCell id="175" value="enum[]" style="shape=partialRectangle;connectable=0;fillColor=none;top=0;left=0;bottom=0;right=0;align=left;spacingLeft=6;overflow=hidden;fontSize=20;" parent="66" vertex="1">
                    <mxGeometry x="272.92962646484375" width="132.73707275390632" height="30" as="geometry">
                        <mxRectangle width="132.73707275390632" height="30" as="alternateBounds"/>
                    </mxGeometry>
                </mxCell>
                <mxCell id="204" value="" style="shape=tableRow;horizontal=0;startSize=0;swimlaneHead=0;swimlaneBody=0;fillColor=none;collapsible=0;dropTarget=0;points=[[0,0.5],[1,0.5]];portConstraint=eastwest;top=0;left=0;right=0;bottom=0;fontSize=20;" parent="53" vertex="1">
                    <mxGeometry y="180" width="405.66669921875007" height="31" as="geometry"/>
                </mxCell>
                <mxCell id="205" value="" style="shape=partialRectangle;connectable=0;fillColor=none;top=0;left=0;bottom=0;right=0;editable=1;overflow=hidden;fontSize=20;" parent="204" vertex="1">
                    <mxGeometry width="55.58386230468747" height="31" as="geometry">
                        <mxRectangle width="55.58386230468747" height="31" as="alternateBounds"/>
                    </mxGeometry>
                </mxCell>
                <mxCell id="206" value="twoFactorAuthEnabled" style="shape=partialRectangle;connectable=0;fillColor=none;top=0;left=0;bottom=0;right=0;align=left;spacingLeft=6;overflow=hidden;fontSize=20;" parent="204" vertex="1">
                    <mxGeometry x="55.58386230468747" width="217.34576416015625" height="31" as="geometry">
                        <mxRectangle width="217.34576416015625" height="31" as="alternateBounds"/>
                    </mxGeometry>
                </mxCell>
                <mxCell id="207" value="boolean" style="shape=partialRectangle;connectable=0;fillColor=none;top=0;left=0;bottom=0;right=0;align=left;spacingLeft=6;overflow=hidden;fontSize=20;" parent="204" vertex="1">
                    <mxGeometry x="272.92962646484375" width="132.73707275390632" height="31" as="geometry">
                        <mxRectangle width="132.73707275390632" height="31" as="alternateBounds"/>
                    </mxGeometry>
                </mxCell>
                <mxCell id="208" value="" style="shape=tableRow;horizontal=0;startSize=0;swimlaneHead=0;swimlaneBody=0;fillColor=none;collapsible=0;dropTarget=0;points=[[0,0.5],[1,0.5]];portConstraint=eastwest;top=0;left=0;right=0;bottom=0;fontSize=20;" parent="53" vertex="1">
                    <mxGeometry y="211" width="405.66669921875007" height="31" as="geometry"/>
                </mxCell>
                <mxCell id="209" value="" style="shape=partialRectangle;connectable=0;fillColor=none;top=0;left=0;bottom=0;right=0;editable=1;overflow=hidden;fontSize=20;" parent="208" vertex="1">
                    <mxGeometry width="55.58386230468747" height="31" as="geometry">
                        <mxRectangle width="55.58386230468747" height="31" as="alternateBounds"/>
                    </mxGeometry>
                </mxCell>
                <mxCell id="210" value="twoFactorAuthSecret" style="shape=partialRectangle;connectable=0;fillColor=none;top=0;left=0;bottom=0;right=0;align=left;spacingLeft=6;overflow=hidden;fontSize=20;" parent="208" vertex="1">
                    <mxGeometry x="55.58386230468747" width="217.34576416015625" height="31" as="geometry">
                        <mxRectangle width="217.34576416015625" height="31" as="alternateBounds"/>
                    </mxGeometry>
                </mxCell>
                <mxCell id="211" value="string" style="shape=partialRectangle;connectable=0;fillColor=none;top=0;left=0;bottom=0;right=0;align=left;spacingLeft=6;overflow=hidden;fontSize=20;" parent="208" vertex="1">
                    <mxGeometry x="272.92962646484375" width="132.73707275390632" height="31" as="geometry">
                        <mxRectangle width="132.73707275390632" height="31" as="alternateBounds"/>
                    </mxGeometry>
                </mxCell>
                <mxCell id="63" value="" style="shape=tableRow;horizontal=0;startSize=0;swimlaneHead=0;swimlaneBody=0;fillColor=none;collapsible=0;dropTarget=0;points=[[0,0.5],[1,0.5]];portConstraint=eastwest;top=0;left=0;right=0;bottom=0;fontSize=20;" parent="53" vertex="1">
                    <mxGeometry y="242" width="405.66669921875007" height="30" as="geometry"/>
                </mxCell>
                <mxCell id="64" value="" style="shape=partialRectangle;connectable=0;fillColor=none;top=0;left=0;bottom=0;right=0;editable=1;overflow=hidden;fontSize=20;" parent="63" vertex="1">
                    <mxGeometry width="55.58386230468747" height="30" as="geometry">
                        <mxRectangle width="55.58386230468747" height="30" as="alternateBounds"/>
                    </mxGeometry>
                </mxCell>
                <mxCell id="65" value="active" style="shape=partialRectangle;connectable=0;fillColor=none;top=0;left=0;bottom=0;right=0;align=left;spacingLeft=6;overflow=hidden;fontSize=20;" parent="63" vertex="1">
                    <mxGeometry x="55.58386230468747" width="217.34576416015625" height="30" as="geometry">
                        <mxRectangle width="217.34576416015625" height="30" as="alternateBounds"/>
                    </mxGeometry>
                </mxCell>
                <mxCell id="176" value="boolean" style="shape=partialRectangle;connectable=0;fillColor=none;top=0;left=0;bottom=0;right=0;align=left;spacingLeft=6;overflow=hidden;fontSize=20;" parent="63" vertex="1">
                    <mxGeometry x="272.92962646484375" width="132.73707275390632" height="30" as="geometry">
                        <mxRectangle width="132.73707275390632" height="30" as="alternateBounds"/>
                    </mxGeometry>
                </mxCell>
                <mxCell id="212" value="" style="shape=tableRow;horizontal=0;startSize=0;swimlaneHead=0;swimlaneBody=0;fillColor=none;collapsible=0;dropTarget=0;points=[[0,0.5],[1,0.5]];portConstraint=eastwest;top=0;left=0;right=0;bottom=0;fontSize=20;" parent="53" vertex="1">
                    <mxGeometry y="272" width="405.66669921875007" height="30" as="geometry"/>
                </mxCell>
                <mxCell id="213" value="" style="shape=partialRectangle;connectable=0;fillColor=none;top=0;left=0;bottom=0;right=0;editable=1;overflow=hidden;fontSize=20;" parent="212" vertex="1">
                    <mxGeometry width="55.58386230468747" height="30" as="geometry">
                        <mxRectangle width="55.58386230468747" height="30" as="alternateBounds"/>
                    </mxGeometry>
                </mxCell>
                <mxCell id="214" value="lastLogin" style="shape=partialRectangle;connectable=0;fillColor=none;top=0;left=0;bottom=0;right=0;align=left;spacingLeft=6;overflow=hidden;fontSize=20;" parent="212" vertex="1">
                    <mxGeometry x="55.58386230468747" width="217.34576416015625" height="30" as="geometry">
                        <mxRectangle width="217.34576416015625" height="30" as="alternateBounds"/>
                    </mxGeometry>
                </mxCell>
                <mxCell id="215" value="Date" style="shape=partialRectangle;connectable=0;fillColor=none;top=0;left=0;bottom=0;right=0;align=left;spacingLeft=6;overflow=hidden;fontSize=20;" parent="212" vertex="1">
                    <mxGeometry x="272.92962646484375" width="132.73707275390632" height="30" as="geometry">
                        <mxRectangle width="132.73707275390632" height="30" as="alternateBounds"/>
                    </mxGeometry>
                </mxCell>
                <mxCell id="190" value="" style="shape=tableRow;horizontal=0;startSize=0;swimlaneHead=0;swimlaneBody=0;fillColor=none;collapsible=0;dropTarget=0;points=[[0,0.5],[1,0.5]];portConstraint=eastwest;top=0;left=0;right=0;bottom=0;fontSize=20;" parent="53" vertex="1">
                    <mxGeometry y="302" width="405.66669921875007" height="30" as="geometry"/>
                </mxCell>
                <mxCell id="191" value="FKs" style="shape=partialRectangle;connectable=0;fillColor=none;top=0;left=0;bottom=0;right=0;editable=1;overflow=hidden;fontSize=20;fontStyle=2" parent="190" vertex="1">
                    <mxGeometry width="55.58386230468747" height="30" as="geometry">
                        <mxRectangle width="55.58386230468747" height="30" as="alternateBounds"/>
                    </mxGeometry>
                </mxCell>
                <mxCell id="192" value="posts" style="shape=partialRectangle;connectable=0;fillColor=none;top=0;left=0;bottom=0;right=0;align=left;spacingLeft=6;overflow=hidden;fontSize=20;fontStyle=2" parent="190" vertex="1">
                    <mxGeometry x="55.58386230468747" width="217.34576416015625" height="30" as="geometry">
                        <mxRectangle width="217.34576416015625" height="30" as="alternateBounds"/>
                    </mxGeometry>
                </mxCell>
                <mxCell id="193" value="Document[]" style="shape=partialRectangle;connectable=0;fillColor=none;top=0;left=0;bottom=0;right=0;align=left;spacingLeft=6;overflow=hidden;fontSize=20;" parent="190" vertex="1">
                    <mxGeometry x="272.92962646484375" width="132.73707275390632" height="30" as="geometry">
                        <mxRectangle width="132.73707275390632" height="30" as="alternateBounds"/>
                    </mxGeometry>
                </mxCell>
                <mxCell id="92" value="Post" style="shape=table;startSize=30;container=1;collapsible=1;childLayout=tableLayout;fixedRows=1;rowLines=0;fontStyle=1;align=center;resizeLast=1;fontSize=20;" parent="1" vertex="1">
                    <mxGeometry x="373" y="181" width="294.5728149414065" height="270" as="geometry">
                        <mxRectangle x="700" y="140" width="140" height="40" as="alternateBounds"/>
                    </mxGeometry>
                </mxCell>
                <mxCell id="93" value="" style="shape=tableRow;horizontal=0;startSize=0;swimlaneHead=0;swimlaneBody=0;fillColor=none;collapsible=0;dropTarget=0;points=[[0,0.5],[1,0.5]];portConstraint=eastwest;top=0;left=0;right=0;bottom=1;fontSize=20;" parent="92" vertex="1">
                    <mxGeometry y="30" width="294.5728149414065" height="30" as="geometry"/>
                </mxCell>
                <mxCell id="94" value="PK" style="shape=partialRectangle;connectable=0;fillColor=none;top=0;left=0;bottom=0;right=0;fontStyle=1;overflow=hidden;fontSize=20;" parent="93" vertex="1">
                    <mxGeometry width="40.12839762369788" height="30" as="geometry">
                        <mxRectangle width="40.12839762369788" height="30" as="alternateBounds"/>
                    </mxGeometry>
                </mxCell>
                <mxCell id="95" value="postID" style="shape=partialRectangle;connectable=0;fillColor=none;top=0;left=0;bottom=0;right=0;align=left;spacingLeft=6;fontStyle=5;overflow=hidden;fontSize=20;" parent="93" vertex="1">
                    <mxGeometry x="40.12839762369788" width="139.87160237630212" height="30" as="geometry">
                        <mxRectangle width="139.87160237630212" height="30" as="alternateBounds"/>
                    </mxGeometry>
                </mxCell>
                <mxCell id="181" value="Document" style="shape=partialRectangle;connectable=0;fillColor=none;top=0;left=0;bottom=0;right=0;align=left;spacingLeft=6;fontStyle=0;overflow=hidden;fontSize=20;" parent="93" vertex="1">
                    <mxGeometry x="180" width="114.57281494140648" height="30" as="geometry">
                        <mxRectangle width="114.57281494140648" height="30" as="alternateBounds"/>
                    </mxGeometry>
                </mxCell>
                <mxCell id="198" value="" style="shape=tableRow;horizontal=0;startSize=0;swimlaneHead=0;swimlaneBody=0;fillColor=none;collapsible=0;dropTarget=0;points=[[0,0.5],[1,0.5]];portConstraint=eastwest;top=0;left=0;right=0;bottom=0;fontSize=20;fontStyle=2" parent="92" vertex="1">
                    <mxGeometry y="60" width="294.5728149414065" height="30" as="geometry"/>
                </mxCell>
                <mxCell id="199" value="FK" style="shape=partialRectangle;connectable=0;fillColor=none;top=0;left=0;bottom=0;right=0;editable=1;overflow=hidden;fontSize=20;fontStyle=2" parent="198" vertex="1">
                    <mxGeometry width="40.12839762369788" height="30" as="geometry">
                        <mxRectangle width="40.12839762369788" height="30" as="alternateBounds"/>
                    </mxGeometry>
                </mxCell>
                <mxCell id="200" value="author" style="shape=partialRectangle;connectable=0;fillColor=none;top=0;left=0;bottom=0;right=0;align=left;spacingLeft=6;overflow=hidden;fontSize=20;fontStyle=2" parent="198" vertex="1">
                    <mxGeometry x="40.12839762369788" width="139.87160237630212" height="30" as="geometry">
                        <mxRectangle width="139.87160237630212" height="30" as="alternateBounds"/>
                    </mxGeometry>
                </mxCell>
                <mxCell id="201" value="Document" style="shape=partialRectangle;connectable=0;fillColor=none;top=0;left=0;bottom=0;right=0;align=left;spacingLeft=6;overflow=hidden;fontSize=20;" parent="198" vertex="1">
                    <mxGeometry x="180" width="114.57281494140648" height="30" as="geometry">
                        <mxRectangle width="114.57281494140648" height="30" as="alternateBounds"/>
                    </mxGeometry>
                </mxCell>
                <mxCell id="96" value="" style="shape=tableRow;horizontal=0;startSize=0;swimlaneHead=0;swimlaneBody=0;fillColor=none;collapsible=0;dropTarget=0;points=[[0,0.5],[1,0.5]];portConstraint=eastwest;top=0;left=0;right=0;bottom=0;fontSize=20;" parent="92" vertex="1">
                    <mxGeometry y="90" width="294.5728149414065" height="30" as="geometry"/>
                </mxCell>
                <mxCell id="97" value="" style="shape=partialRectangle;connectable=0;fillColor=none;top=0;left=0;bottom=0;right=0;editable=1;overflow=hidden;fontSize=20;" parent="96" vertex="1">
                    <mxGeometry width="40.12839762369788" height="30" as="geometry">
                        <mxRectangle width="40.12839762369788" height="30" as="alternateBounds"/>
                    </mxGeometry>
                </mxCell>
                <mxCell id="98" value="title" style="shape=partialRectangle;connectable=0;fillColor=none;top=0;left=0;bottom=0;right=0;align=left;spacingLeft=6;overflow=hidden;fontSize=20;" parent="96" vertex="1">
                    <mxGeometry x="40.12839762369788" width="139.87160237630212" height="30" as="geometry">
                        <mxRectangle width="139.87160237630212" height="30" as="alternateBounds"/>
                    </mxGeometry>
                </mxCell>
                <mxCell id="182" value="string" style="shape=partialRectangle;connectable=0;fillColor=none;top=0;left=0;bottom=0;right=0;align=left;spacingLeft=6;overflow=hidden;fontSize=20;" parent="96" vertex="1">
                    <mxGeometry x="180" width="114.57281494140648" height="30" as="geometry">
                        <mxRectangle width="114.57281494140648" height="30" as="alternateBounds"/>
                    </mxGeometry>
                </mxCell>
                <mxCell id="99" value="" style="shape=tableRow;horizontal=0;startSize=0;swimlaneHead=0;swimlaneBody=0;fillColor=none;collapsible=0;dropTarget=0;points=[[0,0.5],[1,0.5]];portConstraint=eastwest;top=0;left=0;right=0;bottom=0;fontSize=20;" parent="92" vertex="1">
                    <mxGeometry y="120" width="294.5728149414065" height="30" as="geometry"/>
                </mxCell>
                <mxCell id="100" value="" style="shape=partialRectangle;connectable=0;fillColor=none;top=0;left=0;bottom=0;right=0;editable=1;overflow=hidden;fontSize=20;" parent="99" vertex="1">
                    <mxGeometry width="40.12839762369788" height="30" as="geometry">
                        <mxRectangle width="40.12839762369788" height="30" as="alternateBounds"/>
                    </mxGeometry>
                </mxCell>
                <mxCell id="101" value="description" style="shape=partialRectangle;connectable=0;fillColor=none;top=0;left=0;bottom=0;right=0;align=left;spacingLeft=6;overflow=hidden;fontSize=20;" parent="99" vertex="1">
                    <mxGeometry x="40.12839762369788" width="139.87160237630212" height="30" as="geometry">
                        <mxRectangle width="139.87160237630212" height="30" as="alternateBounds"/>
                    </mxGeometry>
                </mxCell>
                <mxCell id="183" value="string" style="shape=partialRectangle;connectable=0;fillColor=none;top=0;left=0;bottom=0;right=0;align=left;spacingLeft=6;overflow=hidden;fontSize=20;" parent="99" vertex="1">
                    <mxGeometry x="180" width="114.57281494140648" height="30" as="geometry">
                        <mxRectangle width="114.57281494140648" height="30" as="alternateBounds"/>
                    </mxGeometry>
                </mxCell>
                <mxCell id="111" value="" style="shape=tableRow;horizontal=0;startSize=0;swimlaneHead=0;swimlaneBody=0;fillColor=none;collapsible=0;dropTarget=0;points=[[0,0.5],[1,0.5]];portConstraint=eastwest;top=0;left=0;right=0;bottom=0;fontSize=20;" parent="92" vertex="1">
                    <mxGeometry y="150" width="294.5728149414065" height="30" as="geometry"/>
                </mxCell>
                <mxCell id="112" value="" style="shape=partialRectangle;connectable=0;fillColor=none;top=0;left=0;bottom=0;right=0;editable=1;overflow=hidden;fontSize=20;" parent="111" vertex="1">
                    <mxGeometry width="40.12839762369788" height="30" as="geometry">
                        <mxRectangle width="40.12839762369788" height="30" as="alternateBounds"/>
                    </mxGeometry>
                </mxCell>
                <mxCell id="113" value="date" style="shape=partialRectangle;connectable=0;fillColor=none;top=0;left=0;bottom=0;right=0;align=left;spacingLeft=6;overflow=hidden;fontSize=20;" parent="111" vertex="1">
                    <mxGeometry x="40.12839762369788" width="139.87160237630212" height="30" as="geometry">
                        <mxRectangle width="139.87160237630212" height="30" as="alternateBounds"/>
                    </mxGeometry>
                </mxCell>
                <mxCell id="184" value="Date" style="shape=partialRectangle;connectable=0;fillColor=none;top=0;left=0;bottom=0;right=0;align=left;spacingLeft=6;overflow=hidden;fontSize=20;" parent="111" vertex="1">
                    <mxGeometry x="180" width="114.57281494140648" height="30" as="geometry">
                        <mxRectangle width="114.57281494140648" height="30" as="alternateBounds"/>
                    </mxGeometry>
                </mxCell>
                <mxCell id="114" value="" style="shape=tableRow;horizontal=0;startSize=0;swimlaneHead=0;swimlaneBody=0;fillColor=none;collapsible=0;dropTarget=0;points=[[0,0.5],[1,0.5]];portConstraint=eastwest;top=0;left=0;right=0;bottom=0;fontSize=20;" parent="92" vertex="1">
                    <mxGeometry y="180" width="294.5728149414065" height="30" as="geometry"/>
                </mxCell>
                <mxCell id="115" value="" style="shape=partialRectangle;connectable=0;fillColor=none;top=0;left=0;bottom=0;right=0;editable=1;overflow=hidden;fontSize=20;" parent="114" vertex="1">
                    <mxGeometry width="40.12839762369788" height="30" as="geometry">
                        <mxRectangle width="40.12839762369788" height="30" as="alternateBounds"/>
                    </mxGeometry>
                </mxCell>
                <mxCell id="116" value="location" style="shape=partialRectangle;connectable=0;fillColor=none;top=0;left=0;bottom=0;right=0;align=left;spacingLeft=6;overflow=hidden;fontSize=20;" parent="114" vertex="1">
                    <mxGeometry x="40.12839762369788" width="139.87160237630212" height="30" as="geometry">
                        <mxRectangle width="139.87160237630212" height="30" as="alternateBounds"/>
                    </mxGeometry>
                </mxCell>
                <mxCell id="185" value="string" style="shape=partialRectangle;connectable=0;fillColor=none;top=0;left=0;bottom=0;right=0;align=left;spacingLeft=6;overflow=hidden;fontSize=20;" parent="114" vertex="1">
                    <mxGeometry x="180" width="114.57281494140648" height="30" as="geometry">
                        <mxRectangle width="114.57281494140648" height="30" as="alternateBounds"/>
                    </mxGeometry>
                </mxCell>
                <mxCell id="117" value="" style="shape=tableRow;horizontal=0;startSize=0;swimlaneHead=0;swimlaneBody=0;fillColor=none;collapsible=0;dropTarget=0;points=[[0,0.5],[1,0.5]];portConstraint=eastwest;top=0;left=0;right=0;bottom=0;fontSize=20;" parent="92" vertex="1">
                    <mxGeometry y="210" width="294.5728149414065" height="30" as="geometry"/>
                </mxCell>
                <mxCell id="118" value="" style="shape=partialRectangle;connectable=0;fillColor=none;top=0;left=0;bottom=0;right=0;editable=1;overflow=hidden;fontSize=20;" parent="117" vertex="1">
                    <mxGeometry width="40.12839762369788" height="30" as="geometry">
                        <mxRectangle width="40.12839762369788" height="30" as="alternateBounds"/>
                    </mxGeometry>
                </mxCell>
                <mxCell id="119" value="images" style="shape=partialRectangle;connectable=0;fillColor=none;top=0;left=0;bottom=0;right=0;align=left;spacingLeft=6;overflow=hidden;fontSize=20;" parent="117" vertex="1">
                    <mxGeometry x="40.12839762369788" width="139.87160237630212" height="30" as="geometry">
                        <mxRectangle width="139.87160237630212" height="30" as="alternateBounds"/>
                    </mxGeometry>
                </mxCell>
                <mxCell id="186" value="string[]" style="shape=partialRectangle;connectable=0;fillColor=none;top=0;left=0;bottom=0;right=0;align=left;spacingLeft=6;overflow=hidden;fontSize=20;" parent="117" vertex="1">
                    <mxGeometry x="180" width="114.57281494140648" height="30" as="geometry">
                        <mxRectangle width="114.57281494140648" height="30" as="alternateBounds"/>
                    </mxGeometry>
                </mxCell>
                <mxCell id="120" value="" style="shape=tableRow;horizontal=0;startSize=0;swimlaneHead=0;swimlaneBody=0;fillColor=none;collapsible=0;dropTarget=0;points=[[0,0.5],[1,0.5]];portConstraint=eastwest;top=0;left=0;right=0;bottom=0;fontSize=20;" parent="92" vertex="1">
                    <mxGeometry y="240" width="294.5728149414065" height="30" as="geometry"/>
                </mxCell>
                <mxCell id="121" value="" style="shape=partialRectangle;connectable=0;fillColor=none;top=0;left=0;bottom=0;right=0;editable=1;overflow=hidden;fontSize=20;" parent="120" vertex="1">
                    <mxGeometry width="40.12839762369788" height="30" as="geometry">
                        <mxRectangle width="40.12839762369788" height="30" as="alternateBounds"/>
                    </mxGeometry>
                </mxCell>
                <mxCell id="122" value="tags" style="shape=partialRectangle;connectable=0;fillColor=none;top=0;left=0;bottom=0;right=0;align=left;spacingLeft=6;overflow=hidden;fontSize=20;" parent="120" vertex="1">
                    <mxGeometry x="40.12839762369788" width="139.87160237630212" height="30" as="geometry">
                        <mxRectangle width="139.87160237630212" height="30" as="alternateBounds"/>
                    </mxGeometry>
                </mxCell>
                <mxCell id="187" value="string[]" style="shape=partialRectangle;connectable=0;fillColor=none;top=0;left=0;bottom=0;right=0;align=left;spacingLeft=6;overflow=hidden;fontSize=20;" parent="120" vertex="1">
                    <mxGeometry x="180" width="114.57281494140648" height="30" as="geometry">
                        <mxRectangle width="114.57281494140648" height="30" as="alternateBounds"/>
                    </mxGeometry>
                </mxCell>
                <mxCell id="202" style="edgeStyle=entityRelationEdgeStyle;html=1;exitX=1;exitY=0.5;exitDx=0;exitDy=0;entryX=0;entryY=0.5;entryDx=0;entryDy=0;startArrow=none;startFill=0;endArrow=ERzeroToMany;endFill=0;" parent="1" source="190" target="93" edge="1">
                    <mxGeometry relative="1" as="geometry"/>
                </mxCell>
                <mxCell id="203" style="edgeStyle=entityRelationEdgeStyle;html=1;exitX=1;exitY=0.5;exitDx=0;exitDy=0;entryX=0;entryY=0.5;entryDx=0;entryDy=0;startArrow=ERmandOne;startFill=0;endArrow=none;endFill=0;" parent="1" source="54" target="198" edge="1">
                    <mxGeometry relative="1" as="geometry"/>
                </mxCell>
            </root>
        </mxGraphModel>
    </diagram>
</mxfile>